<svg xmlns="http://www.w3.org/2000/svg" viewBox="0 0 1040 1190" font-family="'Noto Sans Thai','Segoe UI',Arial,sans-serif">
  <defs>
    <linearGradient id="appbg" x1="0" y1="0" x2="0" y2="1">
      <stop offset="0" stop-color="#132824"/>
      <stop offset="1" stop-color="#0A1614"/>
    </linearGradient>
    <linearGradient id="treebg" x1="0" y1="0" x2="0" y2="1">
      <stop offset="0" stop-color="#153A2E"/>
      <stop offset="1" stop-color="#0E241C"/>
    </linearGradient>
  </defs>

  <rect x="0" y="0" width="1040" height="1190" fill="#F2F4F1"/>

  <text x="20" y="28" font-size="19" font-weight="700" fill="#12241C">Pace ในหน้าตาแบบ K PLUS — Concept Mockup</text>
  <text x="20" y="48" font-size="11.5" fill="#5C6B62">โทนสีและองค์ประกอบอ้างอิงจากภาพตัวอย่างแอปบน App Store ของ K PLUS จริง (มืด/เขียวมิ้นท์) — ทีมออกแบบเองเพื่อใช้ประกอบ pitch ไม่ใช่ภาพหน้าจอจริงของแอป</text>

  <!-- connector arrows -->
  <path d="M325,360 L362,360" stroke="#C3CDC6" stroke-width="3" fill="none"/>
  <path d="M360,351 L374,360 L360,369 Z" fill="#C3CDC6"/>
  <path d="M675,360 L712,360" stroke="#C3CDC6" stroke-width="3" fill="none"/>
  <path d="M710,351 L724,360 L710,369 Z" fill="#C3CDC6"/>

  <!-- ================= PHONE 1 : HOME ================= -->
  <g transform="translate(20,70)">
    <rect x="0" y="0" width="300" height="580" rx="34" fill="#050A09"/>
    <clipPath id="clip1"><rect x="8" y="8" width="284" height="564" rx="26"/></clipPath>
    <g clip-path="url(#clip1)">
      <rect x="8" y="8" width="284" height="564" fill="url(#appbg)"/>

      <text x="24" y="34" font-size="11" fill="#ffffff" opacity="0.75">สวัสดี, พลอย</text>
      <text x="24" y="56" font-size="16" font-weight="600" fill="#ffffff">หน้าหลัก</text>
      <rect x="216" y="40" width="60" height="18" rx="9" fill="none" stroke="#2FE6B4" stroke-width="1.3"/>
      <text x="246" y="53" font-size="8.3" font-weight="700" fill="#2FE6B4" text-anchor="middle">PACE ON</text>

      <text x="24" y="92" font-size="9.5" fill="#ffffff" opacity="0.65">บัญชีเงินรายเดือน (พร้อมใช้ หลังกันบิลแล้ว)</text>
      <text x="24" y="122" font-size="26" font-weight="700" fill="#2FE6B4">18,000.00 ฿</text>
      <text x="24" y="140" font-size="8.7" fill="#ffffff" opacity="0.55">กันบิลไว้แล้ว 3,200 ฿ · เหลือ 21 วันจนเงินเข้ารอบหน้า</text>

      <rect x="22" y="160" width="256" height="66" rx="14" fill="#FAFCFA"/>
      <text x="34" y="180" font-size="10.5" font-weight="600" fill="#16221B">กระเป๋าใช้จ่ายรายวัน</text>
      <text x="244" y="180" font-size="12.5" font-weight="600" fill="#0F8C68" text-anchor="end">320.00 ฿</text>
      <rect x="34" y="190" width="232" height="6" rx="3" fill="#E3EEE9"/>
      <rect x="34" y="190" width="123" height="6" rx="3" fill="#17B98F"/>
      <text x="34" y="211" font-size="8.5" fill="#5C6B62">เป้าวันนี้ 600 ฿ · เติมอัตโนมัติทุกเที่ยงคืน</text>

      <rect x="22" y="238" width="256" height="66" rx="14" fill="#FAFCFA"/>
      <text x="34" y="258" font-size="10.5" font-weight="600" fill="#16221B">กระเป๋านิรภัย</text>
      <text x="244" y="258" font-size="12.5" font-weight="600" fill="#16221B" text-anchor="end">4,500.00 ฿</text>
      <rect x="34" y="268" width="128" height="17" rx="8.5" fill="#F6E7D2"/>
      <text x="42" y="280" font-size="8" fill="#8A5A1F">🌱 ต้นกล้ากำลังโต</text>

      <text x="22" y="332" font-size="8.7" fill="#ffffff" opacity="0.4" letter-spacing="0.06em">บริการเพิ่มเติม</text>
      <g fill="none" stroke="#ffffff" stroke-opacity="0.55" stroke-width="1.4">
        <circle cx="46" cy="366" r="20"/>
        <circle cx="112" cy="366" r="20"/>
        <circle cx="178" cy="366" r="20"/>
        <circle cx="244" cy="366" r="20"/>
      </g>
      <text x="46" y="372" font-size="11" fill="#ffffff" text-anchor="middle" opacity="0.8">↗</text>
      <text x="112" y="372" font-size="11" fill="#ffffff" text-anchor="middle" opacity="0.8">฿</text>
      <text x="178" y="372" font-size="11" fill="#ffffff" text-anchor="middle" opacity="0.8">▤</text>
      <text x="244" y="372" font-size="11" fill="#ffffff" text-anchor="middle" opacity="0.8">◫</text>
      <text x="46" y="398" font-size="7.3" fill="#ffffff" opacity="0.5" text-anchor="middle">โอนเงิน</text>
      <text x="112" y="398" font-size="7.3" fill="#ffffff" opacity="0.5" text-anchor="middle">เติมเงิน</text>
      <text x="178" y="398" font-size="7.3" fill="#ffffff" opacity="0.5" text-anchor="middle">จ่ายบิล</text>
      <text x="244" y="398" font-size="7.3" fill="#ffffff" opacity="0.5" text-anchor="middle">Statement</text>

      <rect x="8" y="500" width="284" height="72" fill="#0D1D1A"/>
      <rect x="31" y="518" width="14" height="14" rx="3" fill="none" stroke="#2FE6B4" stroke-width="1.6"/>
      <text x="38" y="544" font-size="7.2" fill="#2FE6B4" text-anchor="middle" font-weight="600">หน้าหลัก</text>
      <rect x="89" y="518" width="14" height="14" rx="3" fill="none" stroke="#7C8B85" stroke-width="1.6"/>
      <text x="96" y="544" font-size="7.2" fill="#7C8B85" text-anchor="middle">ธุรกรรม</text>
      <circle cx="150" cy="502" r="22" fill="#2FE6B4" stroke="#0D1D1A" stroke-width="4"/>
      <rect x="143" y="495" width="14" height="14" rx="2" fill="none" stroke="#08211B" stroke-width="1.6"/>
      <rect x="203" y="518" width="14" height="14" rx="3" fill="none" stroke="#7C8B85" stroke-width="1.6"/>
      <text x="210" y="544" font-size="7.2" fill="#7C8B85" text-anchor="middle">สแกน</text>
      <rect x="261" y="518" width="14" height="14" rx="3" fill="none" stroke="#7C8B85" stroke-width="1.6"/>
      <text x="268" y="544" font-size="7.2" fill="#7C8B85" text-anchor="middle">อื่นๆ</text>
    </g>
  </g>

  <!-- ================= PHONE 2 : INCOME CONFIRM ================= -->
  <g transform="translate(370,70)">
    <rect x="0" y="0" width="300" height="580" rx="34" fill="#050A09"/>
    <clipPath id="clip2"><rect x="8" y="8" width="284" height="564" rx="26"/></clipPath>
    <g clip-path="url(#clip2)">
      <rect x="8" y="8" width="284" height="564" fill="url(#appbg)"/>
      <text x="24" y="34" font-size="11" fill="#ffffff" opacity="0.75">สวัสดี, พลอย</text>
      <text x="24" y="56" font-size="16" font-weight="600" fill="#ffffff">หน้าหลัก</text>
      <text x="24" y="122" font-size="26" font-weight="700" fill="#2FE6B4" opacity="0.35">— ฿</text>

      <rect x="8" y="8" width="284" height="564" fill="#050D0B" fill-opacity="0.55"/>

      <rect x="8" y="292" width="284" height="208" fill="#FAFCFA"/>
      <text x="24" y="314" font-size="8.5" fill="#5C6B62">เงินเข้าจาก บริษัท ABC จำกัด</text>
      <text x="24" y="336" font-size="15" font-weight="600" fill="#16221B">แบ่งเงินตามแผน Pace ไหม?</text>
      <text x="24" y="360" font-size="19" font-weight="700" fill="#0F8C68">22,500.00 ฿</text>
      <line x1="24" y1="370" x2="276" y2="370" stroke="#E4EAE1" stroke-dasharray="3,3"/>
      <text x="24" y="387" font-size="10.5" fill="#33443A">นิรภัย (20%)</text>
      <text x="276" y="387" font-size="10.5" font-weight="600" fill="#33443A" text-anchor="end">+4,500.00 ฿</text>
      <text x="24" y="402" font-size="10.5" fill="#33443A">บัญชีรายเดือน</text>
      <text x="276" y="402" font-size="10.5" font-weight="600" fill="#33443A" text-anchor="end">+18,000.00 ฿</text>
      <text x="24" y="417" font-size="10.5" fill="#33443A">เป้ารายวันแนะนำ</text>
      <text x="276" y="417" font-size="10.5" font-weight="600" fill="#33443A" text-anchor="end">600 ฿/วัน</text>

      <rect x="24" y="429" width="12" height="12" rx="3" fill="#17B98F"/>
      <text x="42" y="439" font-size="9.5" fill="#5C6B62">จำไว้ ทำอัตโนมัติทุกครั้งจากผู้ส่งนี้</text>

      <rect x="24" y="452" width="118" height="34" rx="10" fill="#EEF2F0"/>
      <text x="83" y="473" font-size="11" fill="#33443A" text-anchor="middle">ไม่ใช่ตอนนี้</text>
      <rect x="152" y="452" width="124" height="34" rx="10" fill="#17B98F"/>
      <text x="214" y="473" font-size="11" font-weight="600" fill="#ffffff" text-anchor="middle">แบ่งเลย</text>

      <rect x="8" y="500" width="284" height="72" fill="#0D1D1A"/>
      <rect x="31" y="518" width="14" height="14" rx="3" fill="none" stroke="#2FE6B4" stroke-width="1.6"/>
      <text x="38" y="544" font-size="7.2" fill="#2FE6B4" text-anchor="middle" font-weight="600">หน้าหลัก</text>
      <rect x="89" y="518" width="14" height="14" rx="3" fill="none" stroke="#7C8B85" stroke-width="1.6"/>
      <text x="96" y="544" font-size="7.2" fill="#7C8B85" text-anchor="middle">ธุรกรรม</text>
      <circle cx="150" cy="502" r="22" fill="#2FE6B4" stroke="#0D1D1A" stroke-width="4"/>
      <rect x="143" y="495" width="14" height="14" rx="2" fill="none" stroke="#08211B" stroke-width="1.6"/>
      <rect x="203" y="518" width="14" height="14" rx="3" fill="none" stroke="#7C8B85" stroke-width="1.6"/>
      <text x="210" y="544" font-size="7.2" fill="#7C8B85" text-anchor="middle">สแกน</text>
      <rect x="261" y="518" width="14" height="14" rx="3" fill="none" stroke="#7C8B85" stroke-width="1.6"/>
      <text x="268" y="544" font-size="7.2" fill="#7C8B85" text-anchor="middle">อื่นๆ</text>
    </g>
  </g>

  <!-- ================= PHONE 3 : VAULT ================= -->
  <g transform="translate(720,70)">
    <rect x="0" y="0" width="300" height="580" rx="34" fill="#050A09"/>
    <clipPath id="clip3"><rect x="8" y="8" width="284" height="564" rx="26"/></clipPath>
    <g clip-path="url(#clip3)">
      <rect x="8" y="8" width="284" height="564" fill="url(#appbg)"/>

      <text x="24" y="34" font-size="11" fill="#ffffff" opacity="0.75">‹ กลับ</text>
      <text x="24" y="56" font-size="16" font-weight="600" fill="#ffffff">กระเป๋านิรภัย</text>

      <text x="150" y="90" font-size="9.5" fill="#ffffff" opacity="0.6" text-anchor="middle">ยอดสะสมในนิรภัย</text>
      <text x="150" y="118" font-size="24" font-weight="700" fill="#2FE6B4" text-anchor="middle">4,500.00 ฿</text>
      <text x="150" y="136" font-size="9.5" font-weight="600" fill="#F0AA5E" text-anchor="middle">ระยะ: ต้นกล้า</text>

      <rect x="22" y="152" width="256" height="164" rx="16" fill="url(#treebg)"/>
      <ellipse cx="150" cy="288" rx="70" ry="8" fill="#0A1E17"/>
      <rect x="144" y="238" width="12" height="50" rx="4" fill="#8A6A45"/>
      <circle cx="122" cy="245" r="20" fill="#1F9E6E"/>
      <circle cx="178" cy="245" r="20" fill="#1F9E6E"/>
      <circle cx="150" cy="228" r="30" fill="#2FCB8D"/>
      <circle cx="150" cy="199" r="17" fill="#69E3B4"/>
      <text x="150" y="308" font-size="9" fill="#ffffff" opacity="0.55" text-anchor="middle">ต้นไม้โตตามยอดสะสม — ยอดเยอะ ทรงพุ่มยิ่งแผ่</text>

      <rect x="22" y="330" width="256" height="140" rx="14" fill="#FAFCFA"/>
      <text x="34" y="350" font-size="11.5" font-weight="600" fill="#16221B">ขอถอนจากนิรภัย</text>
      <text x="34" y="366" font-size="9" fill="#5C6B62">กดขอถอนแล้วต้องรอ cooldown ก่อนเงิน</text>
      <text x="34" y="378" font-size="9" fill="#5C6B62">จะย้ายเข้ากระเป๋ารายวัน ยกเลิกได้ฟรี</text>
      <rect x="34" y="387" width="232" height="32" rx="8" fill="#F6E7D2"/>
      <text x="150" y="409" font-size="15" font-weight="700" fill="#8A5A1F" text-anchor="middle">00:12</text>
      <rect x="34" y="429" width="232" height="32" rx="10" fill="#17B98F"/>
      <text x="150" y="450" font-size="11" font-weight="600" fill="#ffffff" text-anchor="middle">ขอถอน 1,000 ฿</text>
      <text x="150" y="464" font-size="7.5" fill="#8A968F" text-anchor="middle">demo: จริงคือ 24 ชม. ย่อให้ดูจบใน 12 วินาที</text>

      <rect x="8" y="500" width="284" height="72" fill="#0D1D1A"/>
      <rect x="31" y="518" width="14" height="14" rx="3" fill="none" stroke="#7C8B85" stroke-width="1.6"/>
      <text x="38" y="544" font-size="7.2" fill="#7C8B85" text-anchor="middle">หน้าหลัก</text>
      <rect x="89" y="518" width="14" height="14" rx="3" fill="none" stroke="#7C8B85" stroke-width="1.6"/>
      <text x="96" y="544" font-size="7.2" fill="#7C8B85" text-anchor="middle">ธุรกรรม</text>
      <circle cx="150" cy="502" r="22" fill="#2FE6B4" stroke="#0D1D1A" stroke-width="4"/>
      <rect x="143" y="495" width="14" height="14" rx="2" fill="none" stroke="#08211B" stroke-width="1.6"/>
      <rect x="203" y="518" width="14" height="14" rx="3" fill="none" stroke="#7C8B85" stroke-width="1.6"/>
      <text x="210" y="544" font-size="7.2" fill="#7C8B85" text-anchor="middle">สแกน</text>
      <rect x="261" y="518" width="14" height="14" rx="3" fill="none" stroke="#2FE6B4" stroke-width="1.6"/>
      <text x="268" y="544" font-size="7.2" fill="#2FE6B4" text-anchor="middle" font-weight="600">อื่นๆ</text>
    </g>
  </g>

  <!-- captions -->
  <text x="170" y="672" font-size="12.5" font-weight="700" fill="#12241C" text-anchor="middle">1 · หน้าหลัก</text>
  <text x="170" y="690" font-size="10" fill="#5C6B62" text-anchor="middle">เห็นบัญชีรายเดือน + กระเป๋ารายวัน/นิรภัยคู่กันตลอด</text>

  <text x="520" y="672" font-size="12.5" font-weight="700" fill="#12241C" text-anchor="middle">2 · เงินเข้า</text>
  <text x="520" y="690" font-size="10" fill="#5C6B62" text-anchor="middle">ระบบไม่เดา ให้ผู้ใช้ยืนยันครั้งเดียว แล้วจำผู้ส่งไว้</text>

  <text x="870" y="672" font-size="12.5" font-weight="700" fill="#12241C" text-anchor="middle">3 · กระเป๋านิรภัย</text>
  <text x="870" y="690" font-size="10" fill="#5C6B62" text-anchor="middle">ขอถอนแล้วรอ cooldown เห็นต้นไม้โตตามยอดสะสม</text>

  <!-- ================= ROW 2 : SUPPORTING SCREENS ================= -->
  <text x="520" y="724" font-size="14" font-weight="700" fill="#12241C" text-anchor="middle">หน้าจอที่เหลือ — spec ปิดครบแล้วใน design_usecase.md</text>

  <!-- 4: บิล -->
  <g transform="translate(17,740)">
    <rect x="0" y="0" width="190" height="380" rx="24" fill="#050A09"/>
    <clipPath id="clip4"><rect x="6" y="6" width="178" height="368" rx="16"/></clipPath>
    <g clip-path="url(#clip4)">
      <rect x="6" y="6" width="178" height="368" fill="url(#appbg)"/>
      <text x="18" y="30" font-size="12" font-weight="600" fill="#ffffff">รายการบิล</text>

      <rect x="18" y="44" width="154" height="38" rx="10" fill="#FAFCFA"/>
      <text x="28" y="60" font-size="8.5" font-weight="600" fill="#16221B">ค่าเช่าห้อง</text>
      <text x="160" y="60" font-size="9" font-weight="600" fill="#0F8C68" text-anchor="end">3,200 ฿</text>
      <circle cx="28" cy="71" r="3" fill="#17B98F"/>
      <text x="35" y="74" font-size="6.3" fill="#5C6B62">ระบบเจอเอง</text>

      <rect x="18" y="90" width="154" height="38" rx="10" fill="#FAFCFA"/>
      <text x="28" y="106" font-size="8.5" font-weight="600" fill="#16221B">ค่าเน็ต (ผูกบัตร)</text>
      <text x="160" y="106" font-size="9" font-weight="600" fill="#8A5A1F" text-anchor="end">600 ฿</text>
      <circle cx="28" cy="117" r="3" fill="#D98E3F"/>
      <text x="35" y="120" font-size="6.3" fill="#5C6B62">เพิ่มเอง</text>

      <rect x="18" y="136" width="154" height="38" rx="10" fill="#FAFCFA"/>
      <text x="28" y="152" font-size="8.5" font-weight="600" fill="#16221B">ประกันรายปี</text>
      <text x="160" y="152" font-size="9" font-weight="600" fill="#8A5A1F" text-anchor="end">417 ฿/ด.</text>
      <circle cx="28" cy="163" r="3" fill="#D98E3F"/>
      <text x="35" y="166" font-size="6.3" fill="#5C6B62">เพิ่มเอง · ทยอยกัน</text>

      <rect x="18" y="182" width="154" height="30" rx="15" fill="none" stroke="#2FE6B4" stroke-width="1.4"/>
      <text x="95" y="201" font-size="9" fill="#2FE6B4" text-anchor="middle">+ เพิ่มบิล</text>

      <text x="18" y="345" font-size="6.8" fill="#ffffff" opacity="0.5">แยกชัดว่าอันไหนระบบเจอเอง</text>
      <text x="18" y="357" font-size="6.8" fill="#ffffff" opacity="0.5">อันไหนผู้ใช้เพิ่มเอง (UC-13)</text>
    </g>
  </g>

  <!-- 5: สถิติ -->
  <g transform="translate(221,740)">
    <rect x="0" y="0" width="190" height="380" rx="24" fill="#050A09"/>
    <clipPath id="clip5"><rect x="6" y="6" width="178" height="368" rx="16"/></clipPath>
    <g clip-path="url(#clip5)">
      <rect x="6" y="6" width="178" height="368" fill="url(#appbg)"/>
      <text x="18" y="30" font-size="12" font-weight="600" fill="#ffffff">สถิติการใช้เงิน</text>

      <rect x="18" y="44" width="154" height="64" rx="12" fill="#1E2C27"/>
      <text x="28" y="62" font-size="7.5" fill="#ffffff" opacity="0.6">เกินเป้าไปแล้วเดือนนี้</text>
      <text x="28" y="86" font-size="15" font-weight="700" fill="#F0AA5E">2 วัน · 850 ฿</text>

      <g>
        <rect x="18" y="162" width="14" height="20" fill="#17B98F" fill-opacity="0.55"/>
        <rect x="40" y="150" width="14" height="32" fill="#17B98F" fill-opacity="0.55"/>
        <rect x="62" y="168" width="14" height="14" fill="#F0AA5E"/>
        <rect x="84" y="142" width="14" height="40" fill="#17B98F" fill-opacity="0.55"/>
        <rect x="106" y="164" width="14" height="18" fill="#17B98F" fill-opacity="0.55"/>
        <rect x="128" y="136" width="14" height="46" fill="#F0AA5E"/>
        <rect x="150" y="158" width="14" height="24" fill="#17B98F" fill-opacity="0.55"/>
      </g>
      <text x="18" y="196" font-size="6.5" fill="#ffffff" opacity="0.5">เกินเป้า 2 วันในสัปดาห์นี้ (สีส้ม)</text>

      <rect x="18" y="206" width="154" height="50" rx="12" fill="#153A2E"/>
      <text x="28" y="222" font-size="7.5" fill="#ffffff" opacity="0.6">เงินในนิรภัยโตขึ้น</text>
      <text x="28" y="244" font-size="13" font-weight="700" fill="#2FE6B4">+1,200 ฿ เดือนนี้</text>

      <text x="18" y="278" font-size="7" fill="#ffffff" opacity="0.55">รายเดือน 18,000 ฿ · รายวัน 320 ฿</text>
      <text x="18" y="290" font-size="7" fill="#ffffff" opacity="0.55">นิรภัย 4,500 ฿</text>
    </g>
  </g>

  <!-- 6: ตั้งค่า -->
  <g transform="translate(425,740)">
    <rect x="0" y="0" width="190" height="380" rx="24" fill="#050A09"/>
    <clipPath id="clip6"><rect x="6" y="6" width="178" height="368" rx="16"/></clipPath>
    <g clip-path="url(#clip6)">
      <rect x="6" y="6" width="178" height="368" fill="url(#appbg)"/>
      <text x="18" y="30" font-size="12" font-weight="600" fill="#ffffff">ตั้งค่า</text>

      <text x="18" y="54" font-size="8" fill="#ffffff" opacity="0.85">สัดส่วนแบ่งเงิน</text>
      <text x="172" y="54" font-size="8" font-weight="600" fill="#2FE6B4" text-anchor="end">40/20/40%</text>
      <line x1="18" y1="62" x2="172" y2="62" stroke="#ffffff" stroke-opacity="0.12"/>

      <text x="18" y="82" font-size="8" fill="#ffffff" opacity="0.85">เป้ารายวัน</text>
      <text x="172" y="82" font-size="8" font-weight="600" fill="#2FE6B4" text-anchor="end">600 ฿/วัน</text>
      <line x1="18" y1="90" x2="172" y2="90" stroke="#ffffff" stroke-opacity="0.12"/>

      <rect x="14" y="98" width="164" height="40" rx="10" fill="#1E2C27"/>
      <text x="24" y="114" font-size="8" fill="#ffffff" opacity="0.85">ความยาว cooldown</text>
      <text x="24" y="130" font-size="9.5" font-weight="700" fill="#ffffff">24 ชม.</text>
      <rect x="118" y="108" width="46" height="15" rx="7.5" fill="none" stroke="#F0AA5E"/>
      <text x="141" y="118" font-size="6" fill="#F0AA5E" text-anchor="middle">🔒 คงที่</text>

      <text x="18" y="156" font-size="8" fill="#ffffff" opacity="0.85">ผู้ส่งที่จำไว้</text>
      <text x="172" y="156" font-size="7" font-weight="600" fill="#ffffff" text-anchor="end">1 บัญชี (ABC)</text>
      <line x1="18" y1="164" x2="172" y2="164" stroke="#ffffff" stroke-opacity="0.12"/>

      <text x="18" y="200" font-size="6.8" fill="#ffffff" opacity="0.5">cooldown ตั้งครั้งเดียวตอนเปิดบัญชี</text>
      <text x="18" y="212" font-size="6.8" fill="#ffffff" opacity="0.5">หน้านี้แสดง read-only เท่านั้น</text>
    </g>
  </g>

  <!-- 7: ความเป็นส่วนตัว -->
  <g transform="translate(629,740)">
    <rect x="0" y="0" width="190" height="380" rx="24" fill="#050A09"/>
    <clipPath id="clip7"><rect x="6" y="6" width="178" height="368" rx="16"/></clipPath>
    <g clip-path="url(#clip7)">
      <rect x="6" y="6" width="178" height="368" fill="url(#appbg)"/>
      <text x="18" y="30" font-size="12" font-weight="600" fill="#ffffff">ความเป็นส่วนตัว</text>

      <text x="18" y="52" font-size="7.8" fill="#ffffff" opacity="0.8">Pace ใช้ข้อมูล:</text>
      <text x="18" y="68" font-size="7.5" fill="#ffffff" opacity="0.7">• ยอดเงิน · วันที่ทำรายการ</text>
      <text x="18" y="82" font-size="7.5" fill="#ffffff" opacity="0.7">• รหัสผู้ส่ง/ผู้รับ</text>
      <text x="18" y="96" font-size="7.5" fill="#ffffff" opacity="0.7">• รายการบิลที่ผูกไว้</text>

      <rect x="18" y="124" width="154" height="54" rx="10" fill="#1E2C27"/>
      <text x="28" y="142" font-size="7.5" font-weight="600" fill="#F0AA5E">ไม่เก็บข้อมูลเกินจำเป็น</text>
      <text x="28" y="158" font-size="7" fill="#ffffff" opacity="0.65">ไม่อ่าน SMS · ไม่อ่านอีเมล</text>
      <text x="28" y="170" font-size="7" fill="#ffffff" opacity="0.65">ไม่แตะ clipboard</text>

      <rect x="18" y="196" width="154" height="30" rx="15" fill="none" stroke="#E08585" stroke-width="1.4"/>
      <text x="95" y="215" font-size="8" fill="#E08585" text-anchor="middle">ถอนความยินยอม</text>

      <text x="18" y="246" font-size="6.5" fill="#ffffff" opacity="0.5">ตามหลัก PDPA มาตรา 22</text>
    </g>
  </g>

  <!-- 8: Demo Panel (ไม่ใช่หน้าจอลูกค้า จึงวาดเป็นแผงคุมแยก ไม่ใช่กรอบโทรศัพท์) -->
  <g transform="translate(833,740)">
    <rect x="0" y="90" width="190" height="200" rx="16" fill="#12211F" stroke="#2FE6B4" stroke-width="1.5" stroke-dasharray="6,4"/>
    <text x="95" y="116" font-size="9" font-weight="700" fill="#2FE6B4" text-anchor="middle" letter-spacing="0.04em">DEMO PANEL</text>
    <text x="95" y="130" font-size="6.5" fill="#ffffff" opacity="0.55" text-anchor="middle">ใช้บนเวทีเท่านั้น ไม่ใช่หน้าจอลูกค้า</text>

    <rect x="17" y="144" width="156" height="30" rx="8" fill="#0D1D1A" stroke="#ffffff" stroke-opacity="0.15"/>
    <text x="95" y="163" font-size="8" fill="#ffffff" text-anchor="middle">จำลองเงินเข้า</text>

    <rect x="17" y="180" width="156" height="30" rx="8" fill="#0D1D1A" stroke="#ffffff" stroke-opacity="0.15"/>
    <text x="95" y="199" font-size="8" fill="#ffffff" text-anchor="middle">ข้ามไปวันถัดไป</text>

    <rect x="17" y="216" width="156" height="30" rx="8" fill="#0D1D1A" stroke="#ffffff" stroke-opacity="0.15"/>
    <text x="95" y="235" font-size="8" fill="#ffffff" text-anchor="middle">เร่งเวลา cooldown</text>
  </g>

  <!-- row 2 captions -->
  <text x="112" y="1140" font-size="11.5" font-weight="700" fill="#12241C" text-anchor="middle">4 · บิล</text>
  <text x="112" y="1156" font-size="8.7" fill="#5C6B62" text-anchor="middle">แยกอันที่ระบบเจอเองกับที่เพิ่มเอง (UC-13)</text>

  <text x="316" y="1140" font-size="11.5" font-weight="700" fill="#12241C" text-anchor="middle">5 · สถิติ</text>
  <text x="316" y="1156" font-size="8.7" fill="#5C6B62" text-anchor="middle">วันที่ใช้เกิน + นิรภัยโตขึ้นเท่าไหร่ (UC-12)</text>

  <text x="520" y="1140" font-size="11.5" font-weight="700" fill="#12241C" text-anchor="middle">6 · ตั้งค่า</text>
  <text x="520" y="1156" font-size="8.7" fill="#5C6B62" text-anchor="middle">cooldown ล็อกแก้ไม่ได้ — read-only เท่านั้น</text>

  <text x="724" y="1140" font-size="11.5" font-weight="700" fill="#12241C" text-anchor="middle">7 · ความเป็นส่วนตัว</text>
  <text x="724" y="1156" font-size="8.7" fill="#5C6B62" text-anchor="middle">PDPA — ใช้ข้อมูลอะไรบ้าง ถอนยินยอมได้</text>

  <text x="928" y="1140" font-size="11.5" font-weight="700" fill="#12241C" text-anchor="middle">8 · Demo Panel</text>
  <text x="928" y="1156" font-size="8.7" fill="#5C6B62" text-anchor="middle">จำลองเงินเข้า/ข้ามวัน/เร่ง cooldown บนเวที</text>
</svg>
